<svg xmlns="http://www.w3.org/2000/svg" xmlns:xlink="http://www.w3.org/1999/xlink" width="2000" zoomAndPan="magnify" viewBox="0 0 1500 1499.999933" height="2000" preserveAspectRatio="xMidYMid meet" version="1.0"><defs><g/><clipPath id="5e93d0cf26"><path d="M 201.179688 794.046875 L 444 794.046875 L 444 1102 L 201.179688 1102 Z M 201.179688 794.046875 " clip-rule="nonzero"/></clipPath></defs><g fill="#d32f23" fill-opacity="0.4196"><g transform="translate(314.800662, 760.163323)"><g><path d="M 127.234375 0 C 123.410156 0 121.632812 -1.910156 121.90625 -5.734375 L 121.09375 -36.8125 C 121.363281 -37.363281 121.222656 -37.84375 120.671875 -38.25 C 120.128906 -38.65625 119.585938 -38.859375 119.046875 -38.859375 L 83.453125 -38.859375 C 82.085938 -38.859375 81.132812 -38.175781 80.59375 -36.8125 L 72.8125 -5.734375 C 72 -1.910156 69.679688 0 65.859375 0 L 3.6875 0 C -0.40625 0 -1.90625 -2.179688 -0.8125 -6.546875 L 89.1875 -281.046875 C 90.269531 -284.585938 92.722656 -286.359375 96.546875 -286.359375 L 168.953125 -286.359375 C 172.773438 -286.359375 174.820312 -284.585938 175.09375 -281.046875 L 197.59375 -6.546875 L 197.59375 -5.734375 C 197.59375 -1.910156 195.546875 0 191.453125 0 Z M 97.359375 -99.8125 C 96.816406 -98.445312 97.226562 -97.765625 98.59375 -97.765625 L 117.8125 -97.765625 C 118.632812 -97.765625 119.316406 -98.445312 119.859375 -99.8125 L 118.234375 -175.5 C 118.234375 -176.59375 117.890625 -177.070312 117.203125 -176.9375 C 116.523438 -176.800781 116.1875 -176.320312 116.1875 -175.5 Z M 97.359375 -99.8125 "/></g></g></g><g fill="#d32f23" fill-opacity="0.4196"><g transform="translate(525.486742, 760.163323)"><g><path d="M 134.59375 -280.234375 C 134.863281 -282.140625 135.546875 -283.632812 136.640625 -284.71875 C 137.734375 -285.8125 139.234375 -286.359375 141.140625 -286.359375 L 203.734375 -286.359375 C 205.640625 -286.359375 207.066406 -285.8125 208.015625 -284.71875 C 208.972656 -283.632812 209.316406 -282.140625 209.046875 -280.234375 L 175.5 -6.140625 C 175.226562 -4.222656 174.476562 -2.71875 173.25 -1.625 C 172.019531 -0.539062 170.453125 0 168.546875 0 L 105.953125 0 C 104.046875 0 102.613281 -0.539062 101.65625 -1.625 C 100.707031 -2.71875 100.367188 -4.222656 100.640625 -6.140625 L 113.3125 -108.40625 C 113.3125 -109.769531 112.769531 -110.453125 111.6875 -110.453125 L 92.453125 -110.453125 C 91.085938 -110.453125 90.40625 -109.769531 90.40625 -108.40625 L 77.734375 -6.140625 C 77.453125 -4.222656 76.695312 -2.71875 75.46875 -1.625 C 74.25 -0.539062 72.820312 0 71.1875 0 L 8.1875 0 C 6.550781 0 5.253906 -0.539062 4.296875 -1.625 C 3.335938 -2.71875 2.992188 -4.222656 3.265625 -6.140625 L 36.8125 -280.234375 C 37.09375 -282.140625 37.84375 -283.632812 39.0625 -284.71875 C 40.289062 -285.8125 41.722656 -286.359375 43.359375 -286.359375 L 106.359375 -286.359375 C 107.992188 -286.359375 109.289062 -285.8125 110.25 -284.71875 C 111.207031 -283.632812 111.550781 -282.140625 111.28125 -280.234375 L 99 -178.359375 C 98.457031 -176.992188 99.003906 -176.3125 100.640625 -176.3125 L 119.859375 -176.3125 C 120.410156 -176.3125 120.890625 -176.515625 121.296875 -176.921875 C 121.703125 -177.335938 121.90625 -177.816406 121.90625 -178.359375 Z M 134.59375 -280.234375 "/></g></g></g><g fill="#d32f23" fill-opacity="0.4196"><g transform="translate(718.172475, 760.163323)"><g><path d="M 81 3.265625 C 57.539062 3.265625 38.859375 -3.070312 24.953125 -15.75 C 11.046875 -28.425781 4.09375 -45.265625 4.09375 -66.265625 C 4.09375 -68.992188 4.363281 -73.085938 4.90625 -78.546875 L 7.765625 -102.28125 C 8.046875 -104.1875 8.796875 -105.679688 10.015625 -106.765625 C 11.242188 -107.859375 12.675781 -108.40625 14.3125 -108.40625 L 77.3125 -108.40625 C 78.945312 -108.40625 80.242188 -107.859375 81.203125 -106.765625 C 82.160156 -105.679688 82.503906 -104.1875 82.234375 -102.28125 L 79.359375 -77.734375 C 78.816406 -73.367188 79.429688 -69.753906 81.203125 -66.890625 C 82.972656 -64.023438 85.632812 -62.59375 89.1875 -62.59375 C 92.726562 -62.59375 95.863281 -64.023438 98.59375 -66.890625 C 101.320312 -69.753906 102.820312 -73.367188 103.09375 -77.734375 L 128.046875 -280.234375 C 128.316406 -282.140625 129.066406 -283.632812 130.296875 -284.71875 C 131.523438 -285.8125 132.957031 -286.359375 134.59375 -286.359375 L 197.59375 -286.359375 C 199.226562 -286.359375 200.519531 -285.8125 201.46875 -284.71875 C 202.425781 -283.632812 202.769531 -282.140625 202.5 -280.234375 L 177.953125 -78.546875 C 176.046875 -62.453125 170.660156 -48.203125 161.796875 -35.796875 C 152.929688 -23.390625 141.546875 -13.773438 127.640625 -6.953125 C 113.734375 -0.140625 98.1875 3.265625 81 3.265625 Z M 81 3.265625 "/></g></g></g><g fill="#d32f23" fill-opacity="0.4196"><g transform="translate(904.721656, 760.163323)"><g><path d="M 8.1875 0 C 6.550781 0 5.253906 -0.539062 4.296875 -1.625 C 3.335938 -2.71875 2.992188 -4.222656 3.265625 -6.140625 L 36.8125 -280.234375 C 37.09375 -282.140625 37.84375 -283.632812 39.0625 -284.71875 C 40.289062 -285.8125 41.722656 -286.359375 43.359375 -286.359375 L 106.359375 -286.359375 C 107.992188 -286.359375 109.289062 -285.8125 110.25 -284.71875 C 111.207031 -283.632812 111.550781 -282.140625 111.28125 -280.234375 L 77.734375 -6.140625 C 77.453125 -4.222656 76.695312 -2.71875 75.46875 -1.625 C 74.25 -0.539062 72.820312 0 71.1875 0 Z M 8.1875 0 "/></g></g></g><g fill="#d32f23" fill-opacity="0.4196"><g transform="translate(1000.041734, 760.163323)"><g><path d="M 151.78125 -280.234375 C 152.050781 -282.140625 152.796875 -283.632812 154.015625 -284.71875 C 155.242188 -285.8125 156.816406 -286.359375 158.734375 -286.359375 L 220.5 -286.359375 C 222.40625 -286.359375 223.835938 -285.8125 224.796875 -284.71875 C 225.753906 -283.632812 226.09375 -282.140625 225.8125 -280.234375 L 191.859375 -6.140625 C 191.585938 -4.222656 190.90625 -2.71875 189.8125 -1.625 C 188.726562 -0.539062 187.226562 0 185.3125 0 L 114.546875 0 C 111.273438 0 109.363281 -1.769531 108.8125 -5.3125 L 93.265625 -130.90625 C 93.265625 -131.726562 92.992188 -132.140625 92.453125 -132.140625 C 91.910156 -132.140625 91.640625 -131.726562 91.640625 -130.90625 L 76.90625 -6.140625 C 76.632812 -4.222656 75.882812 -2.71875 74.65625 -1.625 C 73.425781 -0.539062 71.992188 0 70.359375 0 L 8.1875 0 C 6.550781 0 5.253906 -0.539062 4.296875 -1.625 C 3.335938 -2.71875 2.992188 -4.222656 3.265625 -6.140625 L 36.8125 -280.234375 C 37.09375 -282.140625 37.84375 -283.632812 39.0625 -284.71875 C 40.289062 -285.8125 41.722656 -286.359375 43.359375 -286.359375 L 113.3125 -286.359375 C 116.59375 -286.359375 118.503906 -284.585938 119.046875 -281.046875 L 135 -154.640625 C 135 -153.816406 135.269531 -153.539062 135.8125 -153.8125 C 136.363281 -154.09375 136.773438 -154.503906 137.046875 -155.046875 Z M 151.78125 -280.234375 "/></g></g></g><g fill="#be73da" fill-opacity="1"><g transform="translate(302.639658, 749.213492)"><g><path d="M 127.234375 0 C 123.410156 0 121.632812 -1.910156 121.90625 -5.734375 L 121.09375 -36.8125 C 121.363281 -37.363281 121.222656 -37.84375 120.671875 -38.25 C 120.128906 -38.65625 119.585938 -38.859375 119.046875 -38.859375 L 83.453125 -38.859375 C 82.085938 -38.859375 81.132812 -38.175781 80.59375 -36.8125 L 72.8125 -5.734375 C 72 -1.910156 69.679688 0 65.859375 0 L 3.6875 0 C -0.40625 0 -1.90625 -2.179688 -0.8125 -6.546875 L 89.1875 -281.046875 C 90.269531 -284.585938 92.722656 -286.359375 96.546875 -286.359375 L 168.953125 -286.359375 C 172.773438 -286.359375 174.820312 -284.585938 175.09375 -281.046875 L 197.59375 -6.546875 L 197.59375 -5.734375 C 197.59375 -1.910156 195.546875 0 191.453125 0 Z M 97.359375 -99.8125 C 96.816406 -98.445312 97.226562 -97.765625 98.59375 -97.765625 L 117.8125 -97.765625 C 118.632812 -97.765625 119.316406 -98.445312 119.859375 -99.8125 L 118.234375 -175.5 C 118.234375 -176.59375 117.890625 -177.070312 117.203125 -176.9375 C 116.523438 -176.800781 116.1875 -176.320312 116.1875 -175.5 Z M 97.359375 -99.8125 "/></g></g></g><g fill="#be73da" fill-opacity="1"><g transform="translate(513.325738, 749.213492)"><g><path d="M 134.59375 -280.234375 C 134.863281 -282.140625 135.546875 -283.632812 136.640625 -284.71875 C 137.734375 -285.8125 139.234375 -286.359375 141.140625 -286.359375 L 203.734375 -286.359375 C 205.640625 -286.359375 207.066406 -285.8125 208.015625 -284.71875 C 208.972656 -283.632812 209.316406 -282.140625 209.046875 -280.234375 L 175.5 -6.140625 C 175.226562 -4.222656 174.476562 -2.71875 173.25 -1.625 C 172.019531 -0.539062 170.453125 0 168.546875 0 L 105.953125 0 C 104.046875 0 102.613281 -0.539062 101.65625 -1.625 C 100.707031 -2.71875 100.367188 -4.222656 100.640625 -6.140625 L 113.3125 -108.40625 C 113.3125 -109.769531 112.769531 -110.453125 111.6875 -110.453125 L 92.453125 -110.453125 C 91.085938 -110.453125 90.40625 -109.769531 90.40625 -108.40625 L 77.734375 -6.140625 C 77.453125 -4.222656 76.695312 -2.71875 75.46875 -1.625 C 74.25 -0.539062 72.820312 0 71.1875 0 L 8.1875 0 C 6.550781 0 5.253906 -0.539062 4.296875 -1.625 C 3.335938 -2.71875 2.992188 -4.222656 3.265625 -6.140625 L 36.8125 -280.234375 C 37.09375 -282.140625 37.84375 -283.632812 39.0625 -284.71875 C 40.289062 -285.8125 41.722656 -286.359375 43.359375 -286.359375 L 106.359375 -286.359375 C 107.992188 -286.359375 109.289062 -285.8125 110.25 -284.71875 C 111.207031 -283.632812 111.550781 -282.140625 111.28125 -280.234375 L 99 -178.359375 C 98.457031 -176.992188 99.003906 -176.3125 100.640625 -176.3125 L 119.859375 -176.3125 C 120.410156 -176.3125 120.890625 -176.515625 121.296875 -176.921875 C 121.703125 -177.335938 121.90625 -177.816406 121.90625 -178.359375 Z M 134.59375 -280.234375 "/></g></g></g><g fill="#be73da" fill-opacity="1"><g transform="translate(706.011471, 749.213492)"><g><path d="M 81 3.265625 C 57.539062 3.265625 38.859375 -3.070312 24.953125 -15.75 C 11.046875 -28.425781 4.09375 -45.265625 4.09375 -66.265625 C 4.09375 -68.992188 4.363281 -73.085938 4.90625 -78.546875 L 7.765625 -102.28125 C 8.046875 -104.1875 8.796875 -105.679688 10.015625 -106.765625 C 11.242188 -107.859375 12.675781 -108.40625 14.3125 -108.40625 L 77.3125 -108.40625 C 78.945312 -108.40625 80.242188 -107.859375 81.203125 -106.765625 C 82.160156 -105.679688 82.503906 -104.1875 82.234375 -102.28125 L 79.359375 -77.734375 C 78.816406 -73.367188 79.429688 -69.753906 81.203125 -66.890625 C 82.972656 -64.023438 85.632812 -62.59375 89.1875 -62.59375 C 92.726562 -62.59375 95.863281 -64.023438 98.59375 -66.890625 C 101.320312 -69.753906 102.820312 -73.367188 103.09375 -77.734375 L 128.046875 -280.234375 C 128.316406 -282.140625 129.066406 -283.632812 130.296875 -284.71875 C 131.523438 -285.8125 132.957031 -286.359375 134.59375 -286.359375 L 197.59375 -286.359375 C 199.226562 -286.359375 200.519531 -285.8125 201.46875 -284.71875 C 202.425781 -283.632812 202.769531 -282.140625 202.5 -280.234375 L 177.953125 -78.546875 C 176.046875 -62.453125 170.660156 -48.203125 161.796875 -35.796875 C 152.929688 -23.390625 141.546875 -13.773438 127.640625 -6.953125 C 113.734375 -0.140625 98.1875 3.265625 81 3.265625 Z M 81 3.265625 "/></g></g></g><g fill="#be73da" fill-opacity="1"><g transform="translate(892.560652, 749.213492)"><g><path d="M 8.1875 0 C 6.550781 0 5.253906 -0.539062 4.296875 -1.625 C 3.335938 -2.71875 2.992188 -4.222656 3.265625 -6.140625 L 36.8125 -280.234375 C 37.09375 -282.140625 37.84375 -283.632812 39.0625 -284.71875 C 40.289062 -285.8125 41.722656 -286.359375 43.359375 -286.359375 L 106.359375 -286.359375 C 107.992188 -286.359375 109.289062 -285.8125 110.25 -284.71875 C 111.207031 -283.632812 111.550781 -282.140625 111.28125 -280.234375 L 77.734375 -6.140625 C 77.453125 -4.222656 76.695312 -2.71875 75.46875 -1.625 C 74.25 -0.539062 72.820312 0 71.1875 0 Z M 8.1875 0 "/></g></g></g><g fill="#be73da" fill-opacity="1"><g transform="translate(987.880729, 749.213492)"><g><path d="M 151.78125 -280.234375 C 152.050781 -282.140625 152.796875 -283.632812 154.015625 -284.71875 C 155.242188 -285.8125 156.816406 -286.359375 158.734375 -286.359375 L 220.5 -286.359375 C 222.40625 -286.359375 223.835938 -285.8125 224.796875 -284.71875 C 225.753906 -283.632812 226.09375 -282.140625 225.8125 -280.234375 L 191.859375 -6.140625 C 191.585938 -4.222656 190.90625 -2.71875 189.8125 -1.625 C 188.726562 -0.539062 187.226562 0 185.3125 0 L 114.546875 0 C 111.273438 0 109.363281 -1.769531 108.8125 -5.3125 L 93.265625 -130.90625 C 93.265625 -131.726562 92.992188 -132.140625 92.453125 -132.140625 C 91.910156 -132.140625 91.640625 -131.726562 91.640625 -130.90625 L 76.90625 -6.140625 C 76.632812 -4.222656 75.882812 -2.71875 74.65625 -1.625 C 73.425781 -0.539062 71.992188 0 70.359375 0 L 8.1875 0 C 6.550781 0 5.253906 -0.539062 4.296875 -1.625 C 3.335938 -2.71875 2.992188 -4.222656 3.265625 -6.140625 L 36.8125 -280.234375 C 37.09375 -282.140625 37.84375 -283.632812 39.0625 -284.71875 C 40.289062 -285.8125 41.722656 -286.359375 43.359375 -286.359375 L 113.3125 -286.359375 C 116.59375 -286.359375 118.503906 -284.585938 119.046875 -281.046875 L 135 -154.640625 C 135 -153.816406 135.269531 -153.539062 135.8125 -153.8125 C 136.363281 -154.09375 136.773438 -154.503906 137.046875 -155.046875 Z M 151.78125 -280.234375 "/></g></g></g><g fill="#d32f23" fill-opacity="0.4196"><g transform="translate(301.099608, 1087.317379)"><g/></g></g><g fill="#d32f23" fill-opacity="0.4196"><g transform="translate(380.464878, 1087.317379)"><g/></g></g><g fill="#b022de" fill-opacity="1"><g transform="translate(288.938603, 1076.367548)"><g/></g></g><g fill="#b022de" fill-opacity="1"><g transform="translate(368.303874, 1076.367548)"><g/></g></g><g fill="#d32f23" fill-opacity="0.4196"><g transform="translate(459.822904, 1087.317379)"><g><path d="M 8.1875 0 C 6.550781 0 5.253906 -0.539062 4.296875 -1.625 C 3.335938 -2.71875 2.992188 -4.222656 3.265625 -6.140625 L 36.8125 -280.234375 C 37.09375 -282.140625 37.84375 -283.632812 39.0625 -284.71875 C 40.289062 -285.8125 41.722656 -286.359375 43.359375 -286.359375 L 106.359375 -286.359375 C 107.992188 -286.359375 109.289062 -285.8125 110.25 -284.71875 C 111.207031 -283.632812 111.550781 -282.140625 111.28125 -280.234375 L 85.5 -67.90625 C 84.957031 -66.539062 85.503906 -65.859375 87.140625 -65.859375 L 164.859375 -65.859375 C 166.773438 -65.859375 168.207031 -65.3125 169.15625 -64.21875 C 170.113281 -63.132812 170.457031 -61.640625 170.1875 -59.734375 L 163.640625 -6.140625 C 162.816406 -2.046875 160.5 0 156.6875 0 Z M 8.1875 0 "/></g></g></g><g fill="#d32f23" fill-opacity="0.4196"><g transform="translate(636.96289, 1087.317379)"><g><path d="M 127.234375 0 C 123.410156 0 121.632812 -1.910156 121.90625 -5.734375 L 121.09375 -36.8125 C 121.363281 -37.363281 121.222656 -37.84375 120.671875 -38.25 C 120.128906 -38.65625 119.585938 -38.859375 119.046875 -38.859375 L 83.453125 -38.859375 C 82.085938 -38.859375 81.132812 -38.175781 80.59375 -36.8125 L 72.8125 -5.734375 C 72 -1.910156 69.679688 0 65.859375 0 L 3.6875 0 C -0.40625 0 -1.90625 -2.179688 -0.8125 -6.546875 L 89.1875 -281.046875 C 90.269531 -284.585938 92.722656 -286.359375 96.546875 -286.359375 L 168.953125 -286.359375 C 172.773438 -286.359375 174.820312 -284.585938 175.09375 -281.046875 L 197.59375 -6.546875 L 197.59375 -5.734375 C 197.59375 -1.910156 195.546875 0 191.453125 0 Z M 97.359375 -99.8125 C 96.816406 -98.445312 97.226562 -97.765625 98.59375 -97.765625 L 117.8125 -97.765625 C 118.632812 -97.765625 119.316406 -98.445312 119.859375 -99.8125 L 118.234375 -175.5 C 118.234375 -176.59375 117.890625 -177.070312 117.203125 -176.9375 C 116.523438 -176.800781 116.1875 -176.320312 116.1875 -175.5 Z M 97.359375 -99.8125 "/></g></g></g><g fill="#d32f23" fill-opacity="0.4196"><g transform="translate(847.64897, 1087.317379)"><g><path d="M 187.78125 -82.234375 C 184.78125 -55.773438 174.347656 -35.453125 156.484375 -21.265625 C 138.617188 -7.085938 117.140625 0 92.046875 0 L 8.1875 0 C 6.550781 0 5.253906 -0.539062 4.296875 -1.625 C 3.335938 -2.71875 2.992188 -4.222656 3.265625 -6.140625 L 36.8125 -280.234375 C 37.09375 -282.140625 37.84375 -283.632812 39.0625 -284.71875 C 40.289062 -285.8125 41.722656 -286.359375 43.359375 -286.359375 L 115.359375 -286.359375 C 141.546875 -286.359375 161.929688 -280.835938 176.515625 -269.796875 C 191.109375 -258.753906 198.40625 -242.050781 198.40625 -219.6875 C 198.40625 -216.957031 198.132812 -212.320312 197.59375 -205.78125 C 194.320312 -180.414062 184.367188 -161.59375 167.734375 -149.3125 C 166.097656 -148.5 165.6875 -147.679688 166.5 -146.859375 C 181.226562 -134.316406 188.59375 -116.726562 188.59375 -94.09375 C 188.59375 -91.632812 188.320312 -87.679688 187.78125 -82.234375 Z M 105.953125 -220.5 C 104.585938 -220.5 103.90625 -219.816406 103.90625 -218.453125 L 98.59375 -176.734375 C 98.59375 -175.367188 99.140625 -174.6875 100.234375 -174.6875 L 102.6875 -174.6875 C 114.414062 -174.6875 121.367188 -182.320312 123.546875 -197.59375 L 123.953125 -202.90625 C 123.953125 -214.632812 118.769531 -220.5 108.40625 -220.5 Z M 94.09375 -65.859375 C 100.09375 -65.859375 105.066406 -68.722656 109.015625 -74.453125 C 112.972656 -80.179688 114.953125 -88.363281 114.953125 -99 C 114.953125 -105.269531 113.722656 -110.3125 111.265625 -114.125 C 108.816406 -117.945312 105.410156 -119.859375 101.046875 -119.859375 L 93.6875 -119.859375 C 92.320312 -119.859375 91.640625 -119.175781 91.640625 -117.8125 L 85.5 -67.90625 C 84.957031 -66.539062 85.503906 -65.859375 87.140625 -65.859375 Z M 94.09375 -65.859375 "/></g></g></g><g fill="#d32f23" fill-opacity="0.4196"><g transform="translate(1039.516457, 1087.317379)"><g><path d="M 85.09375 3.265625 C 61.632812 3.265625 43.085938 -2.800781 29.453125 -14.9375 C 15.816406 -27.070312 9 -43.226562 9 -63.40625 C 9 -65.3125 9.269531 -68.722656 9.8125 -73.640625 L 11.453125 -86.3125 C 11.722656 -88.226562 12.472656 -89.726562 13.703125 -90.8125 C 14.929688 -91.90625 16.363281 -92.453125 18 -92.453125 L 80.1875 -92.453125 C 81.820312 -92.453125 83.113281 -91.90625 84.0625 -90.8125 C 85.019531 -89.726562 85.363281 -88.226562 85.09375 -86.3125 L 84.265625 -77.3125 C 83.722656 -72.945312 84.269531 -69.398438 85.90625 -66.671875 C 87.539062 -63.953125 89.992188 -62.59375 93.265625 -62.59375 C 96.816406 -62.59375 99.816406 -64.09375 102.265625 -67.09375 C 104.722656 -70.09375 105.953125 -73.773438 105.953125 -78.140625 C 105.953125 -82.222656 103.972656 -86.445312 100.015625 -90.8125 C 96.066406 -95.175781 88.5 -101.859375 77.3125 -110.859375 C 66.40625 -119.859375 57.40625 -127.835938 50.3125 -134.796875 C 43.226562 -141.753906 37.09375 -150.34375 31.90625 -160.5625 C 26.726562 -170.789062 24.140625 -182.453125 24.140625 -195.546875 C 24.140625 -198.003906 24.410156 -202.234375 24.953125 -208.234375 C 27.953125 -232.503906 38.039062 -252.140625 55.21875 -267.140625 C 72.40625 -282.140625 93.816406 -289.640625 119.453125 -289.640625 C 142.910156 -289.640625 161.390625 -283.363281 174.890625 -270.8125 C 188.390625 -258.269531 195.140625 -241.363281 195.140625 -220.09375 C 195.140625 -217.632812 194.863281 -213.679688 194.3125 -208.234375 L 193.09375 -199.234375 C 192.820312 -197.316406 192.070312 -195.8125 190.84375 -194.71875 C 189.613281 -193.632812 188.179688 -193.09375 186.546875 -193.09375 L 124.78125 -193.09375 C 123.132812 -193.09375 121.832031 -193.632812 120.875 -194.71875 C 119.925781 -195.8125 119.585938 -197.316406 119.859375 -199.234375 L 121.09375 -209.859375 C 121.363281 -213.953125 120.613281 -217.296875 118.84375 -219.890625 C 117.070312 -222.484375 114.550781 -223.78125 111.28125 -223.78125 C 107.457031 -223.78125 104.316406 -222.140625 101.859375 -218.859375 C 99.410156 -215.585938 98.1875 -211.226562 98.1875 -205.78125 C 98.1875 -201.132812 100.09375 -196.359375 103.90625 -191.453125 C 107.726562 -186.546875 114.820312 -179.726562 125.1875 -171 C 139.09375 -159.269531 149.726562 -149.789062 157.09375 -142.5625 C 164.457031 -135.34375 170.25 -127.4375 174.46875 -118.84375 C 178.695312 -110.25 180.8125 -100.5 180.8125 -89.59375 C 180.8125 -87.40625 180.539062 -83.585938 180 -78.140625 C 176.726562 -53.316406 166.429688 -33.539062 149.109375 -18.8125 C 131.796875 -4.09375 110.457031 3.265625 85.09375 3.265625 Z M 85.09375 3.265625 "/></g></g></g><g fill="#b022de" fill-opacity="1"><g transform="translate(447.6619, 1076.367548)"><g><path d="M 8.1875 0 C 6.550781 0 5.253906 -0.539062 4.296875 -1.625 C 3.335938 -2.71875 2.992188 -4.222656 3.265625 -6.140625 L 36.8125 -280.234375 C 37.09375 -282.140625 37.84375 -283.632812 39.0625 -284.71875 C 40.289062 -285.8125 41.722656 -286.359375 43.359375 -286.359375 L 106.359375 -286.359375 C 107.992188 -286.359375 109.289062 -285.8125 110.25 -284.71875 C 111.207031 -283.632812 111.550781 -282.140625 111.28125 -280.234375 L 85.5 -67.90625 C 84.957031 -66.539062 85.503906 -65.859375 87.140625 -65.859375 L 164.859375 -65.859375 C 166.773438 -65.859375 168.207031 -65.3125 169.15625 -64.21875 C 170.113281 -63.132812 170.457031 -61.640625 170.1875 -59.734375 L 163.640625 -6.140625 C 162.816406 -2.046875 160.5 0 156.6875 0 Z M 8.1875 0 "/></g></g></g><g fill="#b022de" fill-opacity="1"><g transform="translate(624.801886, 1076.367548)"><g><path d="M 127.234375 0 C 123.410156 0 121.632812 -1.910156 121.90625 -5.734375 L 121.09375 -36.8125 C 121.363281 -37.363281 121.222656 -37.84375 120.671875 -38.25 C 120.128906 -38.65625 119.585938 -38.859375 119.046875 -38.859375 L 83.453125 -38.859375 C 82.085938 -38.859375 81.132812 -38.175781 80.59375 -36.8125 L 72.8125 -5.734375 C 72 -1.910156 69.679688 0 65.859375 0 L 3.6875 0 C -0.40625 0 -1.90625 -2.179688 -0.8125 -6.546875 L 89.1875 -281.046875 C 90.269531 -284.585938 92.722656 -286.359375 96.546875 -286.359375 L 168.953125 -286.359375 C 172.773438 -286.359375 174.820312 -284.585938 175.09375 -281.046875 L 197.59375 -6.546875 L 197.59375 -5.734375 C 197.59375 -1.910156 195.546875 0 191.453125 0 Z M 97.359375 -99.8125 C 96.816406 -98.445312 97.226562 -97.765625 98.59375 -97.765625 L 117.8125 -97.765625 C 118.632812 -97.765625 119.316406 -98.445312 119.859375 -99.8125 L 118.234375 -175.5 C 118.234375 -176.59375 117.890625 -177.070312 117.203125 -176.9375 C 116.523438 -176.800781 116.1875 -176.320312 116.1875 -175.5 Z M 97.359375 -99.8125 "/></g></g></g><g fill="#b022de" fill-opacity="1"><g transform="translate(835.487966, 1076.367548)"><g><path d="M 187.78125 -82.234375 C 184.78125 -55.773438 174.347656 -35.453125 156.484375 -21.265625 C 138.617188 -7.085938 117.140625 0 92.046875 0 L 8.1875 0 C 6.550781 0 5.253906 -0.539062 4.296875 -1.625 C 3.335938 -2.71875 2.992188 -4.222656 3.265625 -6.140625 L 36.8125 -280.234375 C 37.09375 -282.140625 37.84375 -283.632812 39.0625 -284.71875 C 40.289062 -285.8125 41.722656 -286.359375 43.359375 -286.359375 L 115.359375 -286.359375 C 141.546875 -286.359375 161.929688 -280.835938 176.515625 -269.796875 C 191.109375 -258.753906 198.40625 -242.050781 198.40625 -219.6875 C 198.40625 -216.957031 198.132812 -212.320312 197.59375 -205.78125 C 194.320312 -180.414062 184.367188 -161.59375 167.734375 -149.3125 C 166.097656 -148.5 165.6875 -147.679688 166.5 -146.859375 C 181.226562 -134.316406 188.59375 -116.726562 188.59375 -94.09375 C 188.59375 -91.632812 188.320312 -87.679688 187.78125 -82.234375 Z M 105.953125 -220.5 C 104.585938 -220.5 103.90625 -219.816406 103.90625 -218.453125 L 98.59375 -176.734375 C 98.59375 -175.367188 99.140625 -174.6875 100.234375 -174.6875 L 102.6875 -174.6875 C 114.414062 -174.6875 121.367188 -182.320312 123.546875 -197.59375 L 123.953125 -202.90625 C 123.953125 -214.632812 118.769531 -220.5 108.40625 -220.5 Z M 94.09375 -65.859375 C 100.09375 -65.859375 105.066406 -68.722656 109.015625 -74.453125 C 112.972656 -80.179688 114.953125 -88.363281 114.953125 -99 C 114.953125 -105.269531 113.722656 -110.3125 111.265625 -114.125 C 108.816406 -117.945312 105.410156 -119.859375 101.046875 -119.859375 L 93.6875 -119.859375 C 92.320312 -119.859375 91.640625 -119.175781 91.640625 -117.8125 L 85.5 -67.90625 C 84.957031 -66.539062 85.503906 -65.859375 87.140625 -65.859375 Z M 94.09375 -65.859375 "/></g></g></g><g fill="#b022de" fill-opacity="1"><g transform="translate(1027.355452, 1076.367548)"><g><path d="M 85.09375 3.265625 C 61.632812 3.265625 43.085938 -2.800781 29.453125 -14.9375 C 15.816406 -27.070312 9 -43.226562 9 -63.40625 C 9 -65.3125 9.269531 -68.722656 9.8125 -73.640625 L 11.453125 -86.3125 C 11.722656 -88.226562 12.472656 -89.726562 13.703125 -90.8125 C 14.929688 -91.90625 16.363281 -92.453125 18 -92.453125 L 80.1875 -92.453125 C 81.820312 -92.453125 83.113281 -91.90625 84.0625 -90.8125 C 85.019531 -89.726562 85.363281 -88.226562 85.09375 -86.3125 L 84.265625 -77.3125 C 83.722656 -72.945312 84.269531 -69.398438 85.90625 -66.671875 C 87.539062 -63.953125 89.992188 -62.59375 93.265625 -62.59375 C 96.816406 -62.59375 99.816406 -64.09375 102.265625 -67.09375 C 104.722656 -70.09375 105.953125 -73.773438 105.953125 -78.140625 C 105.953125 -82.222656 103.972656 -86.445312 100.015625 -90.8125 C 96.066406 -95.175781 88.5 -101.859375 77.3125 -110.859375 C 66.40625 -119.859375 57.40625 -127.835938 50.3125 -134.796875 C 43.226562 -141.753906 37.09375 -150.34375 31.90625 -160.5625 C 26.726562 -170.789062 24.140625 -182.453125 24.140625 -195.546875 C 24.140625 -198.003906 24.410156 -202.234375 24.953125 -208.234375 C 27.953125 -232.503906 38.039062 -252.140625 55.21875 -267.140625 C 72.40625 -282.140625 93.816406 -289.640625 119.453125 -289.640625 C 142.910156 -289.640625 161.390625 -283.363281 174.890625 -270.8125 C 188.390625 -258.269531 195.140625 -241.363281 195.140625 -220.09375 C 195.140625 -217.632812 194.863281 -213.679688 194.3125 -208.234375 L 193.09375 -199.234375 C 192.820312 -197.316406 192.070312 -195.8125 190.84375 -194.71875 C 189.613281 -193.632812 188.179688 -193.09375 186.546875 -193.09375 L 124.78125 -193.09375 C 123.132812 -193.09375 121.832031 -193.632812 120.875 -194.71875 C 119.925781 -195.8125 119.585938 -197.316406 119.859375 -199.234375 L 121.09375 -209.859375 C 121.363281 -213.953125 120.613281 -217.296875 118.84375 -219.890625 C 117.070312 -222.484375 114.550781 -223.78125 111.28125 -223.78125 C 107.457031 -223.78125 104.316406 -222.140625 101.859375 -218.859375 C 99.410156 -215.585938 98.1875 -211.226562 98.1875 -205.78125 C 98.1875 -201.132812 100.09375 -196.359375 103.90625 -191.453125 C 107.726562 -186.546875 114.820312 -179.726562 125.1875 -171 C 139.09375 -159.269531 149.726562 -149.789062 157.09375 -142.5625 C 164.457031 -135.34375 170.25 -127.4375 174.46875 -118.84375 C 178.695312 -110.25 180.8125 -100.5 180.8125 -89.59375 C 180.8125 -87.40625 180.539062 -83.585938 180 -78.140625 C 176.726562 -53.316406 166.429688 -33.539062 149.109375 -18.8125 C 131.796875 -4.09375 110.457031 3.265625 85.09375 3.265625 Z M 85.09375 3.265625 "/></g></g></g><g clip-path="url(#5e93d0cf26)"><path fill="#be73da" d="M 441.597656 826.144531 C 439.789062 822.449219 436.9375 819.175781 433.621094 816.328125 C 429.382812 812.710938 424.296875 809.75 419.90625 807.246094 C 415.085938 804.515625 410 802.128906 404.761719 800.167969 C 399.519531 798.203125 394.164062 796.585938 388.769531 795.394531 C 385.878906 794.777344 382.023438 793.933594 378.554688 794.046875 C 376.398438 794.125 374.316406 794.546875 372.546875 795.355469 C 368.652344 797.089844 366.765625 800.28125 366.300781 803.976562 C 366.109375 805.402344 366.265625 806.941406 366.570312 808.402344 C 366.265625 808.863281 365.996094 809.324219 365.800781 809.863281 C 359.675781 827.605469 353.507812 845.5 346.6875 863.085938 C 342.179688 874.746094 337.363281 886.292969 332.160156 897.605469 L 322.796875 918.808594 C 322.527344 919.425781 321.757812 921.851562 321.292969 923.3125 L 299.945312 931.085938 C 286.035156 936.820312 272.316406 942.476562 258.90625 948.941406 C 249.890625 953.292969 241.027344 958.023438 232.355469 963.414062 C 225.996094 967.375 216.246094 972.226562 209.8125 978.652344 C 206.191406 982.269531 203.53125 986.386719 202.414062 990.925781 C 201.414062 994.96875 201.914062 998.777344 203.339844 1002.242188 C 205.113281 1006.511719 208.503906 1010.324219 212.046875 1013.402344 L 243.953125 1034.027344 L 287.191406 1060.734375 C 300.832031 1067.855469 315.050781 1073.9375 329.578125 1079.246094 C 343.992188 1084.519531 358.671875 1089.097656 373.316406 1093.292969 L 405.300781 1101.144531 C 409.039062 1101.683594 412.851562 1102.257812 416.320312 1101.683594 C 419.480469 1101.144531 422.449219 1099.835938 425.066406 1097.179688 C 430.347656 1091.867188 432.738281 1084.75 433.199219 1077.054688 C 433.777344 1067.355469 431.234375 1056.734375 429.074219 1048.960938 C 425.761719 1036.992188 422.023438 1024.871094 417.902344 1012.902344 C 413.738281 1000.894531 409.152344 989.042969 404.105469 977.613281 L 393.390625 958.140625 L 394.816406 953.714844 L 403.027344 932.28125 L 438.476562 844.269531 C 441.175781 842.652344 442.71875 840.152344 443.332031 837.1875 C 444.027344 833.570312 443.0625 829.105469 441.597656 826.144531 Z M 391.195312 927.546875 L 382.5625 950.210938 C 382.292969 951.175781 380.984375 954.5625 380.558594 956.753906 C 380.136719 959.101562 380.558594 961.027344 381.0625 962.105469 L 392.429688 982.730469 C 397.324219 993.8125 401.792969 1005.359375 405.839844 1017.019531 C 409.886719 1028.71875 413.546875 1040.570312 416.78125 1052.308594 C 418.632812 1058.964844 420.945312 1068.007812 420.480469 1076.246094 C 420.210938 1080.746094 419.09375 1085.058594 416.011719 1088.175781 C 415.242188 1088.945312 414.316406 1089.136719 413.351562 1089.175781 C 411.3125 1089.289062 409.191406 1088.867188 407.109375 1088.519531 L 376.746094 1081.015625 C 362.371094 1076.898438 348 1072.433594 333.894531 1067.277344 C 319.90625 1062.121094 306.148438 1056.3125 293.007812 1049.421875 L 250.851562 1023.40625 L 220.253906 1003.742188 C 218.445312 1002.203125 216.671875 1000.433594 215.515625 998.394531 C 214.746094 997.046875 214.28125 995.585938 214.707031 993.96875 C 215.515625 990.660156 218.097656 988.003906 221.027344 985.578125 C 226.691406 980.921875 234.011719 977.304688 238.984375 974.226562 C 247.269531 969.109375 255.746094 964.566406 264.378906 960.410156 C 277.558594 954.0625 291.042969 948.480469 304.722656 942.824219 L 328.652344 934.011719 C 329.578125 933.550781 330.65625 932.664062 331.582031 931.242188 C 332.738281 929.429688 334.011719 924.8125 334.511719 923.542969 L 343.644531 902.917969 C 348.960938 891.371094 353.894531 879.558594 358.480469 867.667969 C 364.375 852.425781 369.808594 836.996094 375.125 821.5625 C 375.859375 822.140625 376.628906 822.71875 377.4375 823.257812 C 381.679688 826.144531 386.648438 828.257812 391.117188 830.261719 C 391.3125 830.335938 391.542969 830.414062 391.734375 830.492188 C 398.132812 834.648438 406.261719 840.496094 414.664062 843.804688 C 417.746094 845 420.828125 845.847656 423.949219 846.269531 Z M 419.289062 831.992188 C 411.3125 828.875 403.679688 823.101562 397.785156 819.292969 C 397.128906 818.871094 396.476562 818.601562 395.78125 818.445312 C 392.121094 816.828125 388.074219 815.136719 384.566406 812.789062 C 382.640625 811.480469 380.867188 809.980469 379.636719 808.015625 C 379.480469 807.824219 379.367188 807.480469 379.25 807.09375 L 385.992188 807.785156 C 390.773438 808.824219 395.550781 810.25 400.214844 812.019531 C 404.835938 813.789062 409.347656 815.867188 413.585938 818.292969 C 417.324219 820.410156 421.714844 822.871094 425.335938 825.988281 C 427.339844 827.683594 429.113281 829.566406 430.191406 831.800781 C 430.425781 832.222656 430.578125 833.070312 430.695312 833.722656 C 426.996094 834.417969 423.101562 833.492188 419.289062 831.992188 Z M 419.289062 831.992188 " fill-opacity="1" fill-rule="evenodd"/></g><path fill="#be73da" d="M 372.390625 970.492188 C 371.234375 968.183594 369.886719 966.066406 368.152344 964.21875 C 364.335938 960.21875 359.019531 956.714844 353.199219 953.597656 C 344.722656 949.058594 335.28125 945.441406 328.269531 942.402344 C 328.039062 942.285156 327.769531 942.324219 327.574219 942.402344 C 314.394531 948.789062 301.101562 954.636719 288.039062 960.988281 C 279.328125 965.222656 270.699219 969.722656 262.296875 974.726562 C 256.941406 977.921875 250.46875 981.5 245.726562 986.347656 C 242.453125 989.695312 239.984375 993.621094 239.253906 998.394531 C 238.945312 1000.355469 239.253906 1002.242188 239.945312 1003.933594 C 240.949219 1006.398438 242.722656 1008.628906 244.609375 1010.554688 C 247.539062 1013.554688 251.046875 1016.289062 254.78125 1018.75 C 260.292969 1022.367188 266.304688 1025.484375 271.699219 1028.292969 C 286.226562 1035.835938 300.949219 1043.1875 315.898438 1050 C 330.851562 1056.8125 346.070312 1063.121094 361.5625 1068.507812 C 367.804688 1070.703125 376.089844 1073.78125 384.144531 1075.207031 C 389.808594 1076.207031 395.359375 1076.398438 400.019531 1074.976562 C 404.875 1073.472656 406.996094 1070.011719 407.496094 1065.660156 C 408.535156 1056.925781 402.796875 1044.535156 400.828125 1038.878906 L 397.902344 1030.488281 C 396.320312 1025.949219 394.511719 1021.445312 392.582031 1017.058594 C 388.113281 1006.78125 382.988281 996.816406 378.59375 986.539062 C 376.4375 981.539062 374.933594 975.613281 372.390625 970.492188 Z M 372.390625 970.492188 " fill-opacity="1" fill-rule="evenodd"/></svg>